<?xml version="1.0" encoding="UTF-8"?>
<svg xmlns="http://www.w3.org/2000/svg" xmlns:xlink="http://www.w3.org/1999/xlink" width="4001" height="4001" viewBox="0 0 4001 4001">
<path fill-rule="evenodd" fill="rgb(100%, 100%, 100%)" fill-opacity="1" d="M 0.152344 0.648438 L 4000.148438 0.648438 L 4000.148438 4000.644531 L 0.152344 4000.644531 L 0.152344 0.648438 "/>
<path fill-rule="evenodd" fill="rgb(80.076599%, 80.076599%, 80.076599%)" fill-opacity="1" d="M 2803.71875 1854.488281 C 2811.210938 1892.140625 2815.820312 1930.25 2821.570312 1968.179688 C 2825.300781 1992.761719 2829.769531 2017.210938 2834.671875 2041.578125 C 2837.789062 2048.570312 2840.851562 2055.601562 2843.851562 2062.640625 C 2852.359375 2076.121094 2860.96875 2089.53125 2869.539062 2102.96875 C 2878.871094 2117.601562 2887.839844 2132.46875 2896.539062 2147.488281 C 2914.140625 2173.019531 2940.769531 2188.558594 2970.191406 2196.988281 L 2980.941406 2200.078125 L 2980.601562 2211.25 C 2979.511719 2247.621094 2970.359375 2294.230469 2997.410156 2323.539062 L 2998.101562 2324.289062 L 2998.679688 2325.128906 C 3011.519531 2343.738281 3022.011719 2364.960938 3036.941406 2381.980469 C 3054.390625 2395.011719 3082.050781 2397.460938 3102.679688 2403.308594 L 3117.171875 2407.410156 L 3112.410156 2421.699219 C 3103.988281 2446.949219 3101.640625 2473.628906 3102.339844 2500.121094 L 3102.820312 2518.539062 L 3095.039062 2516.808594 C 3096.25 2518.421875 3097.460938 2520.019531 3098.671875 2521.621094 L 3102.179688 2526.25 L 3111.570312 2520.789062 L 3112.761719 2540.210938 L 3116.171875 2544.699219 L 3113.03125 2544.699219 C 3113.871094 2558.738281 3113.980469 2572.808594 3114.78125 2586.851562 C 3116.640625 2619.210938 3121.648438 2652.488281 3152.679688 2669.640625 L 3176.769531 2682.96875 L 3152.078125 2695.140625 C 3142.070312 2700.070312 3131.511719 2703.539062 3120.601562 2705.820312 C 3081.191406 2714.078125 3042.449219 2706.289062 3003.121094 2709.371094 L 3002.621094 2709.410156 L 3002.121094 2709.410156 C 2753.808594 2711.519531 2505.539062 2717.46875 2257.21875 2717.738281 C 2246.589844 2718.988281 2236.398438 2717.179688 2227.199219 2711.46875 C 2212.851562 2702.578125 2204.988281 2686.898438 2197.019531 2672.648438 C 2192.691406 2664.898438 2186.910156 2654.621094 2179.390625 2649.488281 C 2106.960938 2607.640625 2080.140625 2520.730469 2077.960938 2441.648438 C 2076.089844 2373.941406 2042.328125 2310.488281 2022 2247.039062 C 2013.261719 2224.429688 2004.140625 2201.980469 1994.578125 2179.699219 C 1990.921875 2174.820312 1987.230469 2169.941406 1983.570312 2165.050781 L 1983.019531 2164.320312 L 1982.570312 2163.53125 C 1970.261719 2141.898438 1957.859375 2120.320312 1945.550781 2098.691406 L 1939.789062 2088.558594 C 1875.21875 2066.988281 1803.261719 2067 1736.808594 2056.46875 L 1736.28125 2056.390625 L 1735.761719 2056.261719 C 1730.421875 2055 1724.960938 2053.960938 1719.558594 2052.890625 C 1664.21875 2046.539062 1609.050781 2038.871094 1553.828125 2031.558594 C 1507.890625 2025.46875 1461.96875 2019.191406 1416 2013.300781 C 1295.5 1997.859375 1175.078125 1981.421875 1054.121094 1969.878906 L 1041.101562 1968.640625 L 1041.101562 1965.78125 C 1002.839844 1962.371094 964.695312 1957.75 926.726562 1951.929688 C 921.234375 1951.28125 915.738281 1950.648438 910.246094 1950 C 891.046875 1948.519531 871.84375 1947.039062 852.644531 1945.550781 L 823.539062 1943.300781 L 843.054688 1921.589844 C 854.648438 1908.691406 866.304688 1895.859375 878.011719 1883.070312 C 879.429688 1879.261719 880.863281 1875.449219 882.351562 1871.671875 L 886.039062 1862.269531 L 892.839844 1862.449219 L 890.6875 1847.621094 L 902.769531 1847.539062 L 893.972656 1826.171875 L 910.253906 1830.210938 L 904.132812 1817.589844 L 932.71875 1821.199219 C 942.082031 1810.628906 951.566406 1800.179688 961.035156 1789.710938 L 955.101562 1757.851562 L 977.34375 1767.148438 L 978.855469 1765.640625 C 990.070312 1754.421875 1001.230469 1743.140625 1012.210938 1731.679688 C 1015.410156 1727.839844 1018.621094 1723.988281 1021.820312 1720.148438 L 1022.089844 1719.828125 L 1022.371094 1719.519531 C 1033.941406 1707.160156 1045.511719 1694.800781 1057.070312 1682.441406 L 1057.539062 1678.679688 L 1059.46875 1675.828125 C 1063.628906 1669.671875 1067.839844 1663.539062 1072.039062 1657.398438 C 1088.488281 1629.558594 1104.890625 1601.699219 1121.199219 1573.78125 L 1121.320312 1573.570312 L 1121.449219 1573.371094 C 1127.808594 1563.261719 1134.320312 1553.25 1140.769531 1543.199219 L 1141.601562 1541.898438 L 1142.699219 1540.800781 C 1155.488281 1528 1168.230469 1515.148438 1181.03125 1502.351562 C 1206.199219 1475.289062 1229.941406 1445.320312 1241.128906 1409.539062 L 1241.21875 1409.230469 L 1241.339844 1408.921875 C 1252.371094 1378.578125 1265.210938 1348.96875 1278.519531 1319.578125 L 1282.648438 1310.449219 L 1288.480469 1310.871094 C 1326.460938 1240.019531 1382.410156 1171.519531 1388.578125 1089.050781 L 1388.738281 1086.898438 L 1389.519531 1084.890625 C 1414.300781 1021.351562 1452.128906 962.800781 1471.878906 897.398438 L 1472.070312 896.78125 L 1472.308594 896.191406 C 1498.289062 831.601562 1521.25 765.78125 1551.578125 703.011719 L 1552.238281 701.628906 L 1553.179688 700.429688 C 1569.570312 679.398438 1587.960938 659.929688 1608.960938 643.5 L 1600.339844 605.191406 L 1632.679688 627.871094 C 1678.5 600.808594 1728.691406 583.570312 1777.769531 563.390625 C 1786.921875 558.730469 1796.011719 553.859375 1805.058594 549.011719 L 1815.949219 543.179688 L 1818.578125 546.691406 C 1819.738281 545.339844 1820.890625 543.988281 1822.050781 542.640625 L 1825.390625 538.738281 L 1830.449219 537.839844 C 1873.261719 530.21875 1916.289062 523.570312 1959.921875 525.078125 C 2062.171875 526.691406 2164.480469 522.109375 2266.640625 528.460938 L 2268.03125 528.539062 L 2269.378906 528.890625 C 2277.019531 530.890625 2284.628906 533.011719 2292.289062 534.960938 L 2293.308594 535.21875 L 2294.28125 535.621094 C 2328.589844 549.949219 2362.441406 565.5 2395.21875 583.078125 C 2437.871094 604.398438 2480.601562 625.609375 2522.398438 648.558594 L 2527.949219 644.589844 L 2536.070312 649.519531 C 2544.449219 654.609375 2552.910156 659.601562 2561.359375 664.570312 L 2563.789062 666.011719 L 2565.511719 668.25 C 2597.609375 710.398438 2619.851562 761.75 2617.128906 815.570312 C 2615.050781 883.261719 2647.628906 946.589844 2683.730469 1001.75 L 2684.21875 1002.488281 L 2684.609375 1003.289062 C 2691.828125 1018 2712.511719 1021.03125 2726.921875 1024.289062 L 2734.738281 1026.058594 L 2737.351562 1033.628906 C 2755.410156 1086.011719 2773.878906 1140.320312 2808.171875 1184.671875 C 2836.960938 1221.910156 2858.808594 1264.570312 2859.738281 1312.570312 L 2860.03125 1327.558594 L 2845.039062 1327.230469 C 2828.03125 1326.859375 2811.011719 1326.488281 2794 1325.988281 L 2782.121094 1325.640625 L 2780.179688 1313.660156 C 2767.019531 1307.359375 2753.949219 1300.859375 2741.070312 1293.988281 L 2739.691406 1293.261719 L 2738.511719 1292.25 C 2709.828125 1267.808594 2667.460938 1268.039062 2631.550781 1266.820312 C 2613 1273.03125 2594.519531 1279.460938 2576.25 1286.460938 C 2571.078125 1293.101562 2565.980469 1299.808594 2560.800781 1306.441406 L 2559.851562 1307.640625 L 2558.679688 1308.621094 C 2540.730469 1323.578125 2522.78125 1338.53125 2504.550781 1353.140625 L 2498.601562 1357.910156 L 2491.199219 1355.628906 C 2473.441406 1366.890625 2455.769531 1378.28125 2438.328125 1390.03125 L 2438.75 1406.980469 L 2421.308594 1406.980469 C 2418.101562 1410.328125 2414.910156 1413.691406 2411.691406 1417.03125 C 2405.308594 1425.769531 2398.941406 1434.511719 2392.558594 1443.238281 C 2376.03125 1471.199219 2356.738281 1497.328125 2327.390625 1512.878906 L 2326.128906 1513.550781 L 2324.75 1513.960938 C 2307.980469 1518.941406 2297.640625 1532.449219 2289.738281 1547.339844 C 2340.910156 1544.429688 2390.839844 1528.890625 2439.199219 1512.730469 L 2477.839844 1499.820312 L 2455.878906 1534.140625 C 2450.628906 1542.320312 2444.078125 1549.578125 2437.800781 1556.960938 C 2429.859375 1566.308594 2420.179688 1577.5 2421.351562 1590.488281 C 2424.238281 1593.808594 2427.730469 1596.480469 2431.699219 1598.5 C 2457.03125 1611.378906 2499.949219 1596.191406 2501.808594 1564.898438 L 2502.550781 1552.410156 L 2515.019531 1551.410156 C 2527.390625 1550.421875 2539.769531 1549.621094 2552.160156 1548.929688 C 2568.46875 1534.46875 2583.640625 1519.300781 2602.859375 1508.398438 L 2612.328125 1503.03125 L 2620.070312 1510.679688 C 2627.421875 1517.941406 2634 1525.910156 2640.699219 1533.761719 C 2651.410156 1546.320312 2663.308594 1559.890625 2679.390625 1565.449219 L 2679.78125 1565.589844 L 2680.171875 1565.75 C 2699.71875 1573.820312 2725.949219 1569.429688 2746.828125 1569.75 L 2763.691406 1570.019531 L 2760.769531 1586.628906 C 2751.710938 1638.269531 2750.5 1692.148438 2764.449219 1743.058594 L 2764.53125 1743.351562 L 2764.601562 1743.640625 C 2765.96875 1749.589844 2767.730469 1755.441406 2769.738281 1761.210938 C 2780.738281 1792.859375 2797.660156 1820.949219 2803.71875 1854.488281 Z M 3070.578125 2544.589844 C 3069.53125 2544.578125 3068.480469 2544.570312 3067.429688 2544.558594 C 3067.5 2545.128906 3067.558594 2545.710938 3067.628906 2546.289062 C 3068.609375 2545.730469 3069.589844 2545.160156 3070.578125 2544.589844 "/>
<path fill-rule="nonzero" fill="rgb(0%, 0%, 0%)" fill-opacity="1" d="M 1472.621094 938.351562 C 1628.390625 1042.160156 1784.148438 1145.96875 1939.828125 1249.910156 C 1939.898438 1497.621094 1939.898438 1745.320312 1939.828125 1993.058594 L 1847.050781 2054.929688 C 1811.050781 2050.558594 1774.640625 2047.890625 1739.058594 2042.261719 C 1734.839844 2041.261719 1726.140625 2039.53125 1721.800781 2038.660156 C 1666.390625 2032.320312 1611.121094 2024.25 1555.71875 2017.289062 C 1509.878906 2010.828125 1463.789062 2005.488281 1417.828125 1999.03125 C 1297.089844 1984.128906 1176.601562 1967.109375 1055.488281 1955.558594 L 1055.488281 1952.570312 C 1013 1949.089844 970.769531 1944.128906 928.65625 1937.671875 C 924.4375 1937.171875 915.867188 1936.171875 911.640625 1935.679688 C 892.386719 1934.191406 873.007812 1932.699219 853.757812 1931.210938 C 865.929688 1917.671875 878.226562 1904.128906 890.523438 1890.710938 C 891.765625 1887.359375 894.378906 1880.398438 895.742188 1876.921875 L 909.53125 1877.300781 L 907.296875 1861.890625 L 924.1875 1861.769531 L 918.101562 1846.988281 L 936.609375 1851.578125 L 928.65625 1835.191406 L 938.472656 1836.429688 C 951.015625 1822.140625 963.8125 1808.109375 976.484375 1794.070312 L 974.121094 1781.398438 L 994.621094 1789.96875 L 989.027344 1775.808594 C 1000.460938 1764.378906 1011.761719 1752.960938 1022.941406 1741.28125 C 1025.429688 1738.300781 1030.398438 1732.339844 1032.878906 1729.351562 C 1045.550781 1715.808594 1058.21875 1702.269531 1070.769531 1688.859375 L 1071.390625 1683.890625 C 1074.488281 1679.289062 1080.949219 1669.851562 1084.179688 1665.128906 C 1100.699219 1637.179688 1117.21875 1609.109375 1133.621094 1581.03125 C 1139.949219 1570.96875 1146.410156 1561.039062 1152.878906 1550.96875 C 1165.671875 1538.179688 1178.460938 1525.261719 1191.378906 1512.339844 C 1218.210938 1483.519531 1242.929688 1451.96875 1254.859375 1413.839844 C 1265.789062 1383.78125 1278.460938 1354.589844 1291.628906 1325.519531 L 1296.851562 1325.890625 C 1336.21875 1249.121094 1396.21875 1179.808594 1402.929688 1090.121094 C 1423.078125 1038.429688 1451.808594 990.101562 1472.621094 938.351562 "/>
<path fill-rule="nonzero" fill="rgb(0%, 47.459412%, 23.535156%)" fill-opacity="1" d="M 2831.078125 1249.929688 C 2533.988281 1249.929688 2236.910156 1249.921875 1939.828125 1249.910156 C 1784.148438 1145.96875 1628.390625 1042.160156 1472.621094 938.351562 C 1477.460938 926.300781 1481.878906 914.058594 1485.660156 901.558594 C 1511.488281 837.339844 1534.351562 771.75 1564.53125 709.269531 C 1582.050781 686.789062 1601.929688 666.160156 1625.03125 649.398438 L 1622.550781 638.339844 L 1632.109375 645.050781 C 1679.441406 615.480469 1732.480469 597.601562 1783.78125 576.480469 C 1790.859375 572.878906 1804.898438 565.421875 1811.851562 561.699219 L 1817.820312 569.648438 C 1821.671875 565.179688 1829.238281 556.359375 1832.96875 552.011719 C 1874.828125 544.550781 1916.941406 537.96875 1959.550781 539.460938 C 2061.660156 541.078125 2163.761719 536.480469 2265.75 542.820312 C 2271.460938 544.308594 2282.890625 547.410156 2288.730469 548.898438 C 2322.640625 563.058594 2356.179688 578.460938 2388.601562 595.859375 C 2433.820312 618.46875 2479.160156 640.949219 2523.378906 665.539062 L 2528.601562 661.820312 C 2534.929688 665.671875 2547.730469 673.238281 2554.058594 676.96875 C 2584.25 716.601562 2605.359375 764.171875 2602.75 814.980469 C 2600.519531 886.03125 2633.808594 951.738281 2671.699219 1009.628906 C 2681.628906 1029.878906 2703.988281 1033.851562 2723.75 1038.320312 C 2742.378906 1092.359375 2761.378906 1147.511719 2796.78125 1193.46875 C 2810.339844 1210.921875 2822.378906 1229.769531 2831.078125 1249.929688 "/>
<path fill-rule="nonzero" fill="rgb(100%, 100%, 100%)" fill-opacity="1" d="M 1939.828125 1249.910156 C 2236.910156 1249.921875 2533.988281 1249.929688 2831.078125 1249.929688 C 2839.601562 1269.660156 2844.929688 1290.660156 2845.359375 1312.851562 C 2828.328125 1312.480469 2811.320312 1312.101562 2794.429688 1311.609375 L 2793.179688 1303.910156 C 2777.898438 1296.699219 2762.75 1289.25 2747.839844 1281.300781 C 2715.050781 1253.339844 2670.078125 1253.839844 2629.460938 1252.351562 C 2608.589844 1259.308594 2587.851562 1266.511719 2567.351562 1274.460938 C 2562.878906 1280.179688 2553.941406 1291.859375 2549.46875 1297.570312 C 2531.578125 1312.480469 2513.691406 1327.378906 2495.550781 1341.921875 L 2489.101562 1339.929688 C 2467.109375 1353.839844 2445.25 1367.878906 2423.761719 1382.53125 L 2424 1392.601562 L 2415.191406 1392.601562 C 2411.578125 1396.320312 2404.25 1404.019531 2400.648438 1407.75 C 2393.941406 1416.941406 2387.230469 1426.128906 2380.53125 1435.320312 C 2365.371094 1461.039062 2347.609375 1485.878906 2320.648438 1500.171875 C 2290.96875 1508.988281 2278.421875 1536.191406 2266.871094 1562.148438 C 2327.859375 1563.398438 2386.488281 1545.511719 2443.761719 1526.378906 C 2429.839844 1548.121094 2401.398438 1567 2407.730469 1596.441406 C 2436.429688 1636.308594 2513.191406 1615.941406 2516.171875 1565.761719 C 2530.089844 1564.640625 2544 1563.769531 2557.910156 1563.019531 C 2574.808594 1548.359375 2590.460938 1531.96875 2609.960938 1520.910156 C 2630.460938 1541.160156 2645.980469 1569.109375 2674.679688 1579.050781 C 2697.53125 1588.488281 2722.75 1583.769531 2746.601562 1584.140625 C 2737.160156 1637.929688 2736.039062 1693.828125 2750.578125 1746.871094 C 2759.390625 1785.128906 2782.621094 1818.421875 2789.578125 1857.171875 C 2797.03125 1894.558594 2801.75 1932.449219 2807.351562 1970.339844 C 2808.539062 1977.910156 2809.78125 1985.480469 2811.058594 1993.050781 C 2520.648438 1993.050781 2230.238281 1993.050781 1939.828125 1993.058594 C 1939.898438 1745.320312 1939.898438 1497.621094 1939.828125 1249.910156 "/>
<path fill-rule="nonzero" fill="rgb(80.859375%, 6.665039%, 14.501953%)" fill-opacity="1" d="M 1847.050781 2054.929688 L 1939.828125 1993.058594 C 2230.238281 1993.050781 2520.648438 1993.050781 2811.058594 1993.050781 C 2814.058594 2010.691406 2817.320312 2028.339844 2820.878906 2045.988281 C 2823.488281 2051.820312 2828.578125 2063.5 2831.070312 2069.339844 C 2839.761719 2083.128906 2848.460938 2096.921875 2857.398438 2110.699219 C 2866.601562 2125.359375 2875.660156 2140.140625 2884.359375 2155.171875 C 2903.859375 2183.738281 2933.300781 2201.378906 2966.21875 2210.820312 C 2964.980469 2252.441406 2955.660156 2299.519531 2986.839844 2333.300781 C 3000.378906 2352.929688 3011.058594 2374.671875 3027.089844 2392.558594 C 3047.449219 2408.578125 3074.660156 2410.320312 3098.761719 2417.148438 C 3089.820312 2443.980469 3087.210938 2472.179688 3087.949219 2500.5 C 3081.25 2499.011719 3067.578125 2496.28125 3060.871094 2494.910156 C 3069.570312 2506.710938 3078.261719 2518.511719 3087.210938 2530.308594 C 3078.140625 2530.308594 3060.25 2530.058594 3051.308594 2529.941406 C 3052.429688 2539.878906 3054.660156 2559.75 3055.78125 2569.691406 C 3070.058594 2561.488281 3084.351562 2553.289062 3098.640625 2544.96875 C 3101.621094 2593.671875 3095.410156 2654.410156 3145.71875 2682.230469 C 3101.371094 2704.101562 3049.570312 2691.300781 3001.988281 2695.03125 C 2753.429688 2697.140625 2504.871094 2703.101562 2256.308594 2703.351562 C 2216.808594 2708.691406 2214.691406 2655.53125 2186.988281 2637.269531 C 2118.800781 2598.140625 2094.949219 2515.039062 2092.339844 2441.25 C 2090.980469 2370.820312 2056.570312 2307.960938 2035.570312 2242.25 C 2026.5 2218.769531 2017.058594 2195.539062 2007.128906 2172.441406 C 2004.140625 2168.46875 1998.058594 2160.390625 1995.078125 2156.421875 C 1982.78125 2134.800781 1970.359375 2113.191406 1958.058594 2091.570312 C 1964.640625 2091.570312 1977.691406 2091.570312 1984.148438 2091.570312 C 1941.03125 2069.351562 1894.390625 2060.671875 1847.050781 2054.929688 "/>
<path fill-rule="nonzero" fill="rgb(39.988708%, 39.988708%, 39.988708%)" fill-opacity="1" d="M 1255.089844 3417.449219 C 1255.089844 3436.703125 1254.738281 3450.730469 1254.089844 3459.566406 C 1253.828125 3462.402344 1253.351562 3464.691406 1252.609375 3466.464844 C 1251.898438 3468.402344 1250.578125 3469.628906 1248.699219 3470.140625 C 1246.800781 3470.65625 1244.929688 3470.914062 1243.058594 3470.914062 C 1242.101562 3471.078125 1241.578125 3471.496094 1241.578125 3472.109375 C 1241.578125 3473.109375 1242.609375 3473.59375 1244.609375 3473.59375 C 1252.699219 3473.335938 1258.640625 3473.175781 1262.480469 3473.046875 C 1265.890625 3473.175781 1273.050781 3473.335938 1284.019531 3473.59375 C 1286.011719 3473.59375 1287.011719 3473.078125 1287.011719 3472.078125 C 1287.011719 3471.464844 1286.5 3471.078125 1285.46875 3470.882812 C 1283.53125 3470.882812 1281.078125 3470.625 1278.148438 3470.140625 C 1275.398438 3469.628906 1273.628906 3468.402344 1272.761719 3466.433594 C 1271.789062 3464.660156 1271.179688 3462.371094 1270.960938 3459.53125 C 1270.148438 3450.695312 1269.828125 3436.671875 1269.921875 3417.417969 L 1269.921875 3398.488281 L 1270.960938 3398.488281 C 1276.699219 3405.550781 1286.300781 3416.546875 1299.78125 3431.414062 C 1313.261719 3446.246094 1322.679688 3456.210938 1328.058594 3461.402344 C 1331.96875 3464.726562 1335.578125 3467.402344 1338.929688 3469.335938 C 1342.191406 3471.304688 1346.121094 3472.59375 1350.730469 3473.207031 C 1354.480469 3473.464844 1358.761719 3473.59375 1363.671875 3473.59375 L 1373.28125 3473.59375 C 1376.148438 3473.59375 1377.5 3473.109375 1377.371094 3472.109375 C 1377.238281 3471.304688 1376.441406 3470.914062 1374.921875 3470.914062 C 1372.761719 3471.078125 1368.890625 3470.269531 1363.28125 3468.433594 C 1359.179688 3466.757812 1355.441406 3464.402344 1352.03125 3461.4375 C 1348.449219 3458.597656 1342.871094 3453.566406 1335.378906 3446.3125 C 1316.78125 3427.222656 1299.589844 3409.035156 1283.851562 3391.75 C 1287.078125 3388.039062 1293.878906 3380.882812 1304.269531 3370.304688 C 1314.621094 3359.824219 1321.550781 3352.828125 1325.03125 3349.3125 C 1329.191406 3345.089844 1332.679688 3341.671875 1335.550781 3339.089844 C 1338.421875 3336.511719 1341.671875 3334.351562 1345.351562 3332.671875 C 1349.320312 3330.898438 1352.800781 3329.996094 1355.761719 3329.996094 C 1357.050781 3329.996094 1357.699219 3329.546875 1357.699219 3328.609375 C 1357.699219 3327.738281 1356.761719 3327.320312 1354.859375 3327.320312 C 1352.25 3327.320312 1348.800781 3327.386719 1344.511719 3327.515625 C 1340.449219 3327.769531 1337.871094 3327.898438 1336.839844 3327.898438 C 1331.898438 3327.644531 1327.230469 3327.449219 1322.839844 3327.320312 C 1321.289062 3327.320312 1320.550781 3327.738281 1320.550781 3328.609375 C 1320.550781 3329.285156 1321.128906 3329.835938 1322.289062 3330.191406 C 1323.871094 3330.707031 1324.679688 3332.0625 1324.679688 3334.253906 C 1324.679688 3335.769531 1323.679688 3337.769531 1321.738281 3340.21875 C 1319.710938 3342.539062 1317.359375 3345.183594 1314.589844 3348.152344 C 1298.171875 3365.757812 1283.558594 3381.367188 1270.761719 3395.070312 L 1269.921875 3395.070312 L 1269.921875 3383.429688 C 1269.921875 3368.789062 1269.988281 3358.792969 1270.121094 3353.375 C 1270.121094 3348.054688 1270.179688 3344.152344 1270.308594 3341.636719 C 1270.441406 3338.121094 1271.050781 3335.445312 1272.210938 3333.703125 C 1273.179688 3331.996094 1274.859375 3330.964844 1277.238281 3330.578125 C 1279.238281 3330.191406 1280.789062 3329.996094 1281.890625 3329.996094 C 1282.820312 3329.996094 1283.339844 3329.609375 1283.46875 3328.804688 C 1283.46875 3327.804688 1282.441406 3327.320312 1280.441406 3327.320312 C 1277.339844 3327.320312 1273.859375 3327.386719 1269.960938 3327.515625 C 1266.121094 3327.769531 1263.570312 3327.898438 1262.28125 3327.898438 C 1259.058594 3327.644531 1252.21875 3327.449219 1241.769531 3327.320312 C 1239.769531 3327.320312 1238.769531 3327.804688 1238.769531 3328.804688 C 1238.769531 3329.609375 1239.289062 3329.996094 1240.320312 3329.996094 C 1242.578125 3329.996094 1244.671875 3330.191406 1246.640625 3330.578125 C 1249.800781 3331.09375 1251.929688 3332.253906 1253.03125 3334.058594 C 1254.03125 3335.703125 1254.578125 3338.21875 1254.671875 3341.636719 C 1254.960938 3343.539062 1255.089844 3357.472656 1255.089844 3383.429688 L 1255.089844 3417.449219 "/>
<path fill-rule="nonzero" fill="rgb(39.988708%, 39.988708%, 39.988708%)" fill-opacity="1" d="M 1527.21875 3411.679688 C 1527.21875 3425.609375 1528.800781 3436.445312 1532.03125 3444.183594 C 1535.03125 3452.050781 1538.800781 3458.179688 1543.410156 3462.5 C 1550.570312 3468.757812 1557.980469 3472.625 1565.601562 3474.140625 C 1569.210938 3475.074219 1572.53125 3475.625 1575.53125 3475.722656 C 1578.398438 3476.109375 1580.589844 3476.300781 1582.109375 3476.300781 C 1587.851562 3476.300781 1594.070312 3475.398438 1600.710938 3473.5625 C 1607.320312 3471.722656 1614.03125 3467.851562 1620.800781 3461.953125 C 1628.03125 3454.761719 1632.730469 3445.988281 1635.019531 3435.671875 C 1637.148438 3425.320312 1638.148438 3414.808594 1638.019531 3404.101562 L 1638.019531 3383.398438 C 1638.019531 3368.789062 1638.089844 3358.761719 1638.21875 3353.34375 C 1638.21875 3348.054688 1638.28125 3344.152344 1638.410156 3341.636719 C 1638.539062 3338.089844 1639.148438 3335.445312 1640.308594 3333.703125 C 1641.308594 3331.996094 1642.988281 3330.964844 1645.339844 3330.578125 C 1647.371094 3330.191406 1648.921875 3329.996094 1650.019531 3329.996094 C 1650.859375 3329.996094 1651.371094 3329.609375 1651.46875 3328.804688 C 1651.46875 3327.804688 1650.5 3327.320312 1648.570312 3327.320312 C 1645.570312 3327.320312 1642.410156 3327.386719 1639.121094 3327.515625 C 1635.890625 3327.769531 1633.800781 3327.898438 1632.828125 3327.898438 C 1629.828125 3327.644531 1623.21875 3327.449219 1612.96875 3327.320312 C 1610.929688 3327.320312 1609.929688 3327.804688 1609.929688 3328.804688 C 1609.929688 3329.609375 1610.421875 3329.996094 1611.421875 3329.996094 C 1613.679688 3329.996094 1615.800781 3330.191406 1617.828125 3330.578125 C 1620.960938 3331.09375 1623.058594 3332.253906 1624.148438 3334.09375 C 1625.191406 3335.703125 1625.769531 3338.21875 1625.898438 3341.636719 C 1626.148438 3343.539062 1626.28125 3357.4375 1626.28125 3383.429688 L 1626.28125 3407.613281 C 1626.28125 3417.578125 1625.578125 3426.511719 1624.148438 3434.476562 C 1622.578125 3442.476562 1619.640625 3449.34375 1615.351562 3455.082031 C 1607.839844 3464.078125 1598 3468.722656 1585.910156 3468.980469 C 1580.75 3468.980469 1575.949219 3468.238281 1571.398438 3466.789062 C 1566.761719 3465.402344 1562.109375 3462.5625 1557.46875 3458.273438 C 1553.46875 3454.4375 1550.179688 3448.890625 1547.570312 3441.636719 C 1544.800781 3434.605469 1543.410156 3424.222656 1543.410156 3410.550781 L 1543.410156 3383.429688 C 1543.410156 3368.789062 1543.46875 3358.792969 1543.601562 3353.34375 C 1543.601562 3348.054688 1543.671875 3344.152344 1543.800781 3341.636719 C 1543.929688 3338.121094 1544.539062 3335.445312 1545.628906 3333.703125 C 1546.671875 3331.996094 1548.378906 3330.964844 1550.761719 3330.578125 C 1552.789062 3330.191406 1554.339844 3329.996094 1555.441406 3329.996094 C 1556.308594 3329.996094 1556.789062 3329.609375 1556.921875 3328.804688 C 1556.921875 3327.804688 1555.921875 3327.320312 1553.988281 3327.320312 C 1550.828125 3327.320312 1547.25 3327.386719 1543.28125 3327.515625 C 1539.28125 3327.769531 1536.671875 3327.898438 1535.441406 3327.898438 C 1531.671875 3327.644531 1524.480469 3327.449219 1513.871094 3327.320312 C 1511.941406 3327.320312 1510.941406 3327.804688 1510.941406 3328.804688 C 1510.941406 3329.609375 1511.421875 3329.996094 1512.421875 3329.996094 C 1514.679688 3329.996094 1516.800781 3330.191406 1518.839844 3330.578125 C 1521.929688 3331.09375 1524.03125 3332.253906 1525.128906 3334.058594 C 1526.191406 3335.703125 1526.769531 3338.21875 1526.871094 3341.636719 C 1527.089844 3343.539062 1527.21875 3357.4375 1527.21875 3383.429688 L 1527.21875 3411.679688 "/>
<path fill-rule="nonzero" fill="rgb(39.988708%, 39.988708%, 39.988708%)" fill-opacity="1" d="M 1915.089844 3337.089844 C 1914.050781 3333.898438 1913.179688 3331.578125 1912.441406 3330.0625 C 1911.828125 3328.738281 1911.121094 3328.09375 1910.351562 3328.09375 C 1909.601562 3327.578125 1908.058594 3330.546875 1905.671875 3336.960938 L 1865.941406 3447.277344 L 1865.589844 3447.277344 C 1857.230469 3417.0625 1848.851562 3385.816406 1840.5 3353.570312 C 1839.601562 3349.214844 1838.820312 3345.507812 1838.210938 3342.410156 C 1837.851562 3340.832031 1837.601562 3339.476562 1837.5 3338.347656 C 1837.109375 3337.121094 1836.949219 3336.285156 1836.949219 3335.769531 C 1837.050781 3333.1875 1837.851562 3331.640625 1839.300781 3331.15625 C 1840.601562 3330.511719 1841.980469 3330.125 1843.429688 3329.996094 C 1844.851562 3329.996094 1845.921875 3329.996094 1846.628906 3329.996094 C 1847.789062 3330.125 1848.429688 3329.675781 1848.558594 3328.609375 C 1848.691406 3327.738281 1847.558594 3327.320312 1845.171875 3327.320312 C 1840.398438 3327.320312 1836.308594 3327.386719 1832.820312 3327.515625 C 1829.148438 3327.769531 1826.828125 3327.898438 1825.859375 3327.898438 C 1822.378906 3327.644531 1814.988281 3327.449219 1803.699219 3327.320312 C 1801.871094 3327.320312 1800.871094 3327.738281 1800.699219 3328.609375 C 1800.871094 3329.675781 1801.449219 3330.125 1802.410156 3329.996094 C 1804.671875 3329.996094 1807.511719 3330.382812 1810.859375 3331.15625 C 1813.21875 3331.898438 1815.25 3333.316406 1816.890625 3335.382812 C 1818.351562 3337.605469 1819.800781 3341.21875 1821.179688 3346.28125 L 1854.488281 3460.984375 C 1856.398438 3467.304688 1857.78125 3471.433594 1858.621094 3473.367188 C 1859.558594 3475.335938 1860.359375 3476.300781 1861.101562 3476.300781 C 1862.199219 3476.300781 1863.199219 3475.59375 1864.101562 3474.140625 C 1864.851562 3472.753906 1865.878906 3470.046875 1867.230469 3466.015625 C 1880.359375 3430.542969 1893.421875 3394.75 1906.410156 3358.632812 L 1906.859375 3358.632812 L 1943.558594 3466.175781 C 1944.78125 3469.851562 1945.851562 3472.433594 1946.75 3473.945312 C 1947.488281 3475.527344 1948.300781 3476.300781 1949.140625 3476.300781 C 1950.171875 3476.429688 1951.199219 3475.398438 1952.171875 3473.175781 C 1953.199219 3471.109375 1954.808594 3466.59375 1957.011719 3459.660156 C 1968.070312 3425.191406 1979.550781 3389.265625 1991.511719 3351.828125 C 1993.410156 3346.410156 1995.25 3341.863281 1997.03125 3338.121094 C 1998.730469 3334.351562 2000.960938 3331.964844 2003.699219 3330.964844 C 2006.441406 3330.320312 2008.570312 3329.996094 2010.078125 3329.996094 C 2011.179688 3329.996094 2011.730469 3329.480469 2011.730469 3328.417969 C 2011.730469 3327.675781 2010.890625 3327.320312 2009.179688 3327.320312 C 2006.179688 3327.320312 2003.179688 3327.386719 2000.121094 3327.515625 C 1996.988281 3327.769531 1994.960938 3327.898438 1993.988281 3327.898438 C 1991.609375 3327.644531 1985.21875 3327.449219 1974.871094 3327.320312 C 1972.710938 3327.320312 1971.648438 3327.738281 1971.648438 3328.609375 C 1971.648438 3329.546875 1972.230469 3329.996094 1973.390625 3329.996094 C 1977.609375 3329.996094 1980.550781 3330.511719 1982.191406 3331.511719 C 1983.421875 3332.546875 1984 3333.964844 1984 3335.769531 C 1984.128906 3337.605469 1983.449219 3341.734375 1982 3348.152344 C 1971.609375 3384.589844 1961.96875 3417.515625 1953.070312 3446.925781 L 1952.359375 3446.925781 L 1915.089844 3337.089844 "/>
<path fill-rule="nonzero" fill="rgb(39.988708%, 39.988708%, 39.988708%)" fill-opacity="1" d="M 2160.320312 3452.34375 C 2158.808594 3457.277344 2156.839844 3461.339844 2154.449219 3464.5625 C 2152.101562 3467.917969 2148.78125 3469.882812 2144.589844 3470.527344 C 2142.679688 3470.785156 2140.878906 3470.914062 2139.101562 3470.914062 C 2138.101562 3470.914062 2137.558594 3471.304688 2137.460938 3472.109375 C 2137.460938 3473.109375 2138.621094 3473.59375 2141.011719 3473.59375 C 2151.519531 3473.335938 2158.550781 3473.175781 2162.160156 3473.046875 C 2165.738281 3473.175781 2170.640625 3473.335938 2176.800781 3473.59375 C 2178.511719 3473.59375 2179.410156 3473.109375 2179.539062 3472.109375 C 2179.539062 3471.304688 2178.929688 3470.914062 2177.699219 3470.914062 L 2175.871094 3470.914062 C 2174.21875 3470.914062 2172.699219 3470.398438 2171.320312 3469.402344 C 2169.609375 3468.628906 2168.738281 3467.273438 2168.738281 3465.304688 C 2168.738281 3461.726562 2169.609375 3457.40625 2171.320312 3452.34375 L 2182.570312 3418 C 2182.929688 3417 2183.570312 3416.484375 2184.480469 3416.484375 L 2224.75 3416.484375 C 2225.589844 3416.484375 2226.140625 3416.871094 2226.398438 3417.644531 L 2243.871094 3465.304688 C 2244.359375 3466.886719 2244.488281 3468.078125 2244.230469 3468.820312 C 2243.871094 3469.691406 2243.390625 3470.269531 2242.78125 3470.527344 C 2241.839844 3470.65625 2241.390625 3471.109375 2241.390625 3471.914062 C 2241.390625 3472.785156 2243.289062 3473.207031 2247.070312 3473.207031 C 2261.898438 3473.464844 2271.699219 3473.59375 2276.441406 3473.59375 C 2278.828125 3473.59375 2280.089844 3473.109375 2280.179688 3472.109375 C 2280.179688 3471.304688 2279.601562 3470.914062 2278.378906 3470.914062 C 2276.351562 3471.078125 2273.859375 3470.722656 2270.871094 3469.753906 C 2268.960938 3469.402344 2266.699219 3467.789062 2264.089844 3464.949219 C 2261.21875 3462.113281 2258.128906 3456.566406 2254.769531 3448.3125 C 2235.851562 3398.359375 2221.300781 3359.4375 2211.109375 3331.609375 C 2209.210938 3326.675781 2207.820312 3324.355469 2206.890625 3324.609375 C 2206.179688 3324.355469 2204.789062 3326.867188 2202.789062 3332.15625 Z M 2186.511719 3409.582031 C 2185.859375 3409.582031 2185.699219 3409.132812 2185.960938 3408.226562 L 2202.398438 3355.953125 C 2203.46875 3353.019531 2204.398438 3353.019531 2205.238281 3355.953125 L 2223.109375 3408.226562 C 2223.460938 3409.132812 2223.199219 3409.582031 2222.269531 3409.582031 L 2186.511719 3409.582031 "/>
<path fill-rule="nonzero" fill="rgb(39.988708%, 39.988708%, 39.988708%)" fill-opacity="1" d="M 2464.21875 3383.429688 C 2464.21875 3368.789062 2464.28125 3358.792969 2464.410156 3353.375 C 2464.410156 3348.054688 2464.46875 3344.152344 2464.601562 3341.636719 C 2464.730469 3338.121094 2465.351562 3335.445312 2466.441406 3333.703125 C 2467.410156 3331.996094 2469.078125 3330.964844 2471.46875 3330.578125 C 2473.5 3330.191406 2475.078125 3329.996094 2476.238281 3329.996094 C 2477.121094 3329.996094 2477.601562 3329.609375 2477.730469 3328.804688 C 2477.730469 3327.804688 2476.730469 3327.320312 2474.699219 3327.320312 C 2471.601562 3327.320312 2467.988281 3327.386719 2463.859375 3327.515625 C 2459.769531 3327.769531 2457.320312 3327.898438 2456.480469 3327.898438 C 2452.800781 3327.644531 2446.511719 3327.449219 2437.578125 3327.320312 C 2435.578125 3327.320312 2434.550781 3327.804688 2434.550781 3328.804688 C 2434.550781 3329.609375 2435.058594 3329.996094 2436.03125 3329.996094 C 2437.679688 3329.996094 2439.640625 3330.253906 2441.898438 3330.769531 C 2445.871094 3331.511719 2447.960938 3335.15625 2448.191406 3341.636719 C 2448.480469 3343.539062 2448.609375 3357.472656 2448.609375 3383.429688 L 2448.609375 3417.484375 C 2448.609375 3436.703125 2448.25 3450.730469 2447.609375 3459.566406 C 2447.351562 3462.402344 2446.871094 3464.691406 2446.128906 3466.464844 C 2445.421875 3468.402344 2444.089844 3469.628906 2442.21875 3470.140625 C 2440.320312 3470.65625 2438.449219 3470.914062 2436.578125 3470.914062 C 2435.609375 3471.078125 2435.101562 3471.496094 2435.101562 3472.109375 C 2435.101562 3473.109375 2436.128906 3473.59375 2438.128906 3473.59375 C 2446.578125 3473.335938 2452.699219 3473.175781 2456.480469 3473.046875 C 2459.441406 3473.175781 2467.089844 3473.335938 2479.371094 3473.59375 C 2481.371094 3473.59375 2482.398438 3473.078125 2482.398438 3472.078125 C 2482.398438 3471.464844 2481.890625 3471.078125 2480.921875 3470.882812 C 2478.53125 3470.882812 2475.730469 3470.625 2472.46875 3470.140625 C 2469.730469 3469.628906 2467.890625 3468.402344 2466.988281 3466.433594 C 2465.988281 3464.660156 2465.378906 3462.371094 2465.148438 3459.53125 C 2464.351562 3450.730469 2464.050781 3436.703125 2464.21875 3417.449219 L 2464.21875 3383.429688 "/>
<path fill-rule="nonzero" fill="rgb(39.988708%, 39.988708%, 39.988708%)" fill-opacity="1" d="M 2711 3335.640625 L 2734.730469 3335.996094 C 2743.46875 3336.253906 2749.570312 3337.285156 2752.921875 3339.121094 C 2756.109375 3341.1875 2757.761719 3343.703125 2757.890625 3346.667969 L 2758.078125 3348.730469 C 2758.210938 3351.054688 2758.691406 3352.148438 2759.558594 3352.019531 C 2760.429688 3352.019531 2760.851562 3351.183594 2760.851562 3349.472656 C 2761.109375 3344.25 2761.339844 3337.1875 2761.53125 3328.222656 C 2761.53125 3326.835938 2761.179688 3326.09375 2760.53125 3325.964844 C 2759.789062 3325.964844 2758.050781 3326.289062 2755.308594 3326.964844 C 2753.890625 3327.09375 2752.078125 3327.257812 2749.890625 3327.515625 C 2747.628906 3327.769531 2745.019531 3327.898438 2742.019531 3327.898438 L 2671.691406 3327.898438 C 2668.269531 3327.898438 2663.308594 3327.578125 2656.859375 3326.964844 C 2652.210938 3325.644531 2649.441406 3324.871094 2648.601562 3324.609375 C 2647.800781 3324.996094 2647.179688 3326.222656 2646.671875 3328.285156 C 2646.441406 3329.609375 2645.761719 3332.898438 2644.671875 3338.1875 C 2644.179688 3340.636719 2643.730469 3342.765625 2643.28125 3344.507812 C 2642.800781 3346.476562 2642.570312 3347.765625 2642.570312 3348.378906 C 2642.570312 3349.570312 2642.859375 3350.183594 2643.480469 3350.183594 C 2644.28125 3350.3125 2644.929688 3349.636719 2645.410156 3348.183594 C 2645.800781 3347.183594 2646.859375 3345.21875 2648.628906 3342.25 C 2649.960938 3339.894531 2652.050781 3338.285156 2654.921875 3337.316406 C 2657.789062 3336.445312 2662.050781 3335.996094 2667.691406 3335.996094 L 2695.390625 3335.640625 L 2695.390625 3417.484375 C 2695.390625 3436.703125 2695.039062 3450.730469 2694.359375 3459.566406 C 2694.128906 3462.402344 2693.648438 3464.691406 2692.910156 3466.464844 C 2692.199219 3468.402344 2690.878906 3469.628906 2689.011719 3470.140625 C 2687.109375 3470.65625 2685.269531 3470.914062 2683.429688 3470.914062 C 2682.398438 3471.078125 2681.878906 3471.496094 2681.878906 3472.109375 C 2681.878906 3473.109375 2682.878906 3473.59375 2684.878906 3473.59375 C 2693.359375 3473.335938 2699.488281 3473.175781 2703.261719 3473.046875 C 2706.261719 3473.175781 2713.929688 3473.335938 2726.28125 3473.59375 C 2728.25 3473.59375 2729.21875 3473.078125 2729.21875 3472.078125 C 2729.21875 3471.464844 2728.738281 3471.078125 2727.738281 3470.882812 C 2725.351562 3470.882812 2722.550781 3470.625 2719.289062 3470.140625 C 2716.511719 3469.628906 2714.679688 3468.402344 2713.769531 3466.433594 C 2712.808594 3464.691406 2712.191406 3462.371094 2711.941406 3459.53125 C 2711.191406 3450.730469 2710.898438 3436.703125 2711 3417.484375 L 2711 3335.640625 "/>
</svg>
